Plot: A high school biology teacher looks to become a successful mixed-martial arts fighter in an effort to raise money to prevent extra-curricular activities from being axed at his cash-strapped school.

MediaInfo:
General
Unique ID                                : 240889631478431723806878859251124885045 (0xB539A7CBF162403AB7527C32E0955635)
Complete name                            : D:Tolstyk.na.ringe.2012.D.BDRip.720p.UNIONGANG.mkv
Format                                   : Matroska
Format version                           : Version 2
File size                                : 6.19 GiB
Duration                                 : 1h 44mn
Overall bit rate                         : 8 451 Kbps
Movie name                               : UNIONGANG.tv
Encoded date                             : UTC 2013-02-06 09:53:01
Writing application                      : mkvmerge v5.3.0 ('I could have danced') built on Feb  9 2012 10:38:07
Writing library                          : libebml v1.2.3 + libmatroska v1.3.0

Video
ID                                       : 1
Format                                   : AVC
Format/Info                              : Advanced Video Codec
Format profile                           : High@L4.1
Format settings, CABAC                   : Yes
Format settings, ReFrames                : 9 frames
Codec ID                                 : V_MPEG4/ISO/AVC
Duration                                 : 1h 44mn
Bit rate                                 : 6 390 Kbps
Width                                    : 1 280 pixels
Height                                   : 694 pixels
Display aspect ratio                     : 1.85:1
Frame rate mode                          : Constant
Frame rate                               : 23.976 fps
Color space                              : YUV
Chroma subsampling                       : 4:2:0
Bit depth                                : 8 bits
Scan type                                : Progressive
Bits/(Pixel*Frame)                       : 0.300
Stream size                              : 4.68 GiB (76%)
Title                                    : NiP
Writing library                          : x264 core 129 r2245kMod bc13772
Encoding settings                        : cabac=1 / ref=9 / deblock=1:-2:-2 / analyse=0x3:0x113 / me=tesa / subme=11 / psy=1 / fade_compensate=0.00 / psy_rd=0.95:0.00 / mixed_ref=1 / me_range=24 / chroma_me=1 / trellis=2 / 8x8dct=1 / cqm=0 / deadzone=21,11 / fast_pskip=0 / chroma_qp_offset=-2 / threads=12 / lookahead_threads=2 / sliced_threads=0 / nr=0 / decimate=1 / interlaced=0 / bluray_compat=0 / constrained_intra=0 / bframes=7 / b_pyramid=2 / b_adapt=2 / b_bias=0 / direct=1 / weightb=1 / open_gop=0 / weightp=2 / keyint=250 / keyint_min=23 / scenecut=40 / intra_refresh=0 / rc=crf / mbtree=0 / crf=17.5000 / qcomp=0.60 / qpmin=0 / qpmax=69 / qpstep=4 / ip_ratio=1.25 / pb_ratio=1.15 / aq=1:0.70
Language                                 : English
Default                                  : Yes
Forced                                   : No
Matrix coefficients                      : BT.709

Audio #1
ID                                       : 2
Format                                   : DTS
Format/Info                              : Digital Theater Systems
Mode                                     : 16
Format settings, Endianness              : Big
Codec ID                                 : A_DTS
Duration                                 : 1h 44mn
Bit rate mode                            : Constant
Bit rate                                 : 1 509 Kbps
Channel(s)                               : 6 channels
Channel positions                        : Front: L C R, Side: L R, LFE
Sampling rate                            : 48.0 KHz
Bit depth                                : 24 bits
Compression mode                         : Lossy
Stream size                              : 1.11 GiB (18%)
Title                                    : DTS 5.1 @ 1510 kbps
Language                                 : English
Default                                  : No
Forced                                   : No

Audio #2
ID                                       : 4
Format                                   : AC-3
Format/Info                              : Audio Coding 3
Mode extension                           : CM (complete main)
Format settings, Endianness              : Big
Codec ID                                 : A_AC3
Duration                                 : 1h 44mn
Bit rate mode                            : Constant
Bit rate                                 : 384 Kbps
Channel(s)                               : 6 channels
Channel positions                        : Front: L C R, Side: L R, LFE
Sampling rate                            : 48.0 KHz
Bit depth                                : 16 bits
Compression mode                         : Lossy
Stream size                              : 288 MiB (5%)
Title                                    : Dub R5
Language                                 : Russian
Default                                  : Yes
Forced                                   : No

Text
ID                                       : 3
Format                                   : UTF-8
Codec ID                                 : S_TEXT/UTF8
Codec ID/Info                            : UTF-8 Plain Text
Language                                 : English
Default                                  : No
Forced                                   : No

Menu
00:00:00.000                             : en:00:00:00.000
00:08:41.896                             : en:00:08:41.896
00:12:53.606                             : en:00:12:53.606
00:18:21.934                             : en:00:18:21.934
00:27:42.578                             : en:00:27:42.578
00:34:16.888                             : en:00:34:16.888
00:42:40.558                             : en:00:42:40.558
00:49:34.847                             : en:00:49:34.847
00:55:49.596                             : en:00:55:49.596
01:02:05.972                             : en:01:02:05.972
01:06:42.373                             : en:01:06:42.373
01:11:09.557                             : en:01:11:09.557
01:17:27.184                             : en:01:17:27.184
01:22:00.040                             : en:01:22:00.040
01:33:03.328                             : en:01:33:03.328
01:38:50.466                             : en:01:38:50.466

